<svg xmlns="http://www.w3.org/2000/svg" xmlns:xlink="http://www.w3.org/1999/xlink" width="500" zoomAndPan="magnify" viewBox="0 0 375 374.999991" height="500" preserveAspectRatio="xMidYMid meet" version="1.0"><defs><clipPath id="dd64a4b16f"><path d="M 80.152344 80.152344 L 294.652344 80.152344 L 294.652344 294.652344 L 80.152344 294.652344 Z M 80.152344 80.152344 " clip-rule="nonzero"/></clipPath></defs><g clip-path="url(#dd64a4b16f)"><path fill="#4d81b0" d="M 267.855469 80.570312 L 107.078125 80.570312 C 92.300781 80.570312 80.152344 92.703125 80.152344 107.410156 L 80.152344 267.453125 C 80.152344 282.164062 92.300781 294.421875 107.078125 294.421875 L 187.078125 294.421875 L 187.078125 220.621094 L 160.660156 220.621094 L 160.660156 187.914062 L 187.078125 187.914062 L 187.078125 160.757812 C 187.078125 138.65625 205.460938 121.246094 227.664062 121.246094 L 255.003906 121.246094 L 255.003906 154.371094 L 241.058594 154.371094 C 233.664062 154.371094 227.75 153.394531 227.75 160.757812 L 227.75 187.914062 L 261.160156 187.914062 L 247.761719 220.621094 L 227.75 220.621094 L 227.75 294.421875 L 267.855469 294.421875 C 282.636719 294.421875 294.839844 282.164062 294.839844 267.453125 L 294.839844 107.410156 C 294.839844 92.703125 282.636719 80.570312 267.855469 80.570312 Z M 267.855469 80.570312 " fill-opacity="1" fill-rule="nonzero"/></g></svg>