<svg xmlns="http://www.w3.org/2000/svg" xmlns:xlink="http://www.w3.org/1999/xlink" width="500" zoomAndPan="magnify" viewBox="0 0 375 374.999991" height="500" preserveAspectRatio="xMidYMid meet" version="1.0"><defs><clipPath id="bc6ba3a934"><path d="M 80.152344 80.152344 L 294.652344 80.152344 L 294.652344 294.652344 L 80.152344 294.652344 Z M 80.152344 80.152344 " clip-rule="nonzero"/></clipPath></defs><g clip-path="url(#bc6ba3a934)"><path fill="#4d81b0" d="M 188.085938 80.152344 C 158.515625 80.152344 154.96875 80.152344 143.730469 80.742188 C 132.492188 80.742188 124.214844 83.109375 117.707031 85.476562 C 110.609375 88.433594 104.695312 91.980469 98.78125 97.894531 C 92.867188 103.808594 89.320312 109.722656 86.363281 116.820312 C 83.40625 123.917969 81.632812 131.605469 81.632812 142.84375 C 80.449219 155.265625 80.449219 158.8125 80.449219 187.792969 C 80.449219 217.363281 80.449219 220.910156 81.039062 232.148438 C 81.039062 243.386719 83.40625 251.667969 85.769531 258.171875 C 88.726562 265.269531 92.277344 271.183594 98.191406 277.097656 C 104.105469 283.011719 110.019531 286.558594 117.117188 289.515625 C 124.214844 292.472656 131.902344 294.25 143.140625 294.25 C 154.375 294.25 158.515625 294.839844 187.496094 294.839844 C 216.476562 294.839844 220.617188 294.839844 231.851562 294.25 C 243.089844 294.25 251.371094 291.882812 257.875 289.515625 C 264.972656 286.558594 270.886719 283.011719 276.800781 277.097656 C 282.714844 271.183594 286.265625 265.269531 289.222656 258.171875 C 291.585938 251.074219 293.953125 243.386719 293.953125 232.148438 C 293.953125 220.910156 294.542969 216.773438 294.542969 187.792969 C 294.542969 158.222656 294.542969 154.671875 293.953125 143.433594 C 293.953125 132.199219 291.585938 123.917969 289.222656 117.414062 C 286.265625 110.316406 282.714844 104.402344 276.800781 98.488281 C 270.886719 92.574219 264.972656 89.023438 257.875 86.066406 C 250.777344 83.109375 243.089844 81.335938 231.851562 81.335938 C 221.207031 80.152344 217.660156 80.152344 188.085938 80.152344 Z M 178.625 99.667969 C 181.582031 99.667969 184.539062 99.667969 188.085938 99.667969 C 217.066406 99.667969 220.023438 99.667969 231.851562 100.261719 C 242.5 100.261719 247.820312 102.625 251.960938 103.808594 C 257.285156 105.582031 260.832031 107.949219 264.382812 112.089844 C 267.929688 115.636719 270.296875 119.1875 272.660156 124.507812 C 273.84375 128.058594 275.617188 133.972656 276.210938 144.617188 C 276.210938 155.855469 276.800781 159.402344 276.800781 188.382812 C 276.800781 217.363281 276.800781 220.320312 276.210938 232.148438 C 276.210938 242.792969 273.84375 248.117188 272.660156 252.257812 C 270.886719 257.582031 268.523438 261.128906 264.382812 264.675781 C 260.832031 268.226562 257.285156 270.589844 251.960938 272.957031 C 248.414062 274.730469 242.5 275.914062 231.851562 276.507812 C 220.617188 276.507812 217.066406 277.097656 188.085938 277.097656 C 159.109375 277.097656 156.152344 277.097656 144.324219 276.507812 C 133.675781 276.507812 128.355469 274.140625 124.214844 272.957031 C 118.890625 271.183594 115.34375 268.816406 111.792969 264.675781 C 108.246094 261.128906 105.878906 257.582031 103.515625 252.257812 C 102.332031 248.707031 100.558594 242.792969 99.964844 232.148438 C 99.964844 220.910156 99.375 217.363281 99.375 188.382812 C 99.375 159.402344 99.375 156.445312 99.964844 144.617188 C 99.964844 133.972656 102.332031 128.648438 103.515625 124.507812 C 105.289062 119.1875 107.652344 115.636719 111.792969 112.089844 C 115.34375 108.542969 118.890625 106.175781 124.214844 103.808594 C 127.761719 102.035156 133.675781 100.851562 144.324219 100.261719 C 154.375 100.261719 157.925781 100.261719 178.035156 99.667969 Z M 188.085938 132.789062 C 157.332031 132.789062 132.492188 157.628906 132.492188 188.382812 C 132.492188 219.136719 157.332031 243.976562 188.085938 243.976562 C 218.84375 243.976562 243.683594 219.136719 243.683594 188.382812 C 243.683594 157.628906 218.84375 132.789062 188.085938 132.789062 Z M 188.085938 152.304688 C 208.195312 152.304688 224.164062 168.273438 224.164062 188.382812 C 224.164062 208.492188 208.195312 224.460938 188.085938 224.460938 C 167.980469 224.460938 152.011719 208.492188 152.011719 188.382812 C 152.011719 168.273438 167.980469 152.304688 188.085938 152.304688 Z M 188.085938 152.304688 " fill-opacity="1" fill-rule="nonzero"/></g></svg>